<?xml version="1.0" encoding="UTF-8" standalone="no"?>
<svg
   height="16"
   viewBox="0 0 16 16"
   width="16"
   version="1.1"
   id="svg1"
   sodipodi:docname="FDGSpring.svg"
   inkscape:version="1.3 (0e150ed6c4, 2023-07-21)"
   xml:space="preserve"
   xmlns:inkscape="http://www.inkscape.org/namespaces/inkscape"
   xmlns:sodipodi="http://sodipodi.sourceforge.net/DTD/sodipodi-0.dtd"
   xmlns="http://www.w3.org/2000/svg"
   xmlns:svg="http://www.w3.org/2000/svg"><defs
     id="defs1" /><sodipodi:namedview
     id="namedview1"
     pagecolor="#ffffff"
     bordercolor="#666666"
     borderopacity="1.0"
     inkscape:showpageshadow="2"
     inkscape:pageopacity="0.0"
     inkscape:pagecheckerboard="0"
     inkscape:deskcolor="#d1d1d1"
     inkscape:zoom="36.283417"
     inkscape:cx="7.3173925"
     inkscape:cy="6.0771565"
     inkscape:window-width="1920"
     inkscape:window-height="1017"
     inkscape:window-x="-8"
     inkscape:window-y="-8"
     inkscape:window-maximized="1"
     inkscape:current-layer="g18" /><g
     id="g18"><path
       d="m 4,3 v 2 l 8,3 V 6 Z m 0,5 v 2 l 8,3 v -2 z"
       fill="#4b70ea"
       id="path1" /><path
       d="M 4,3 V 5 C 4,5 10.308394,5.1665695 12,3 12.410275,2.4745297 12.52547,1.4102748 12,1 9.8334305,-0.69160636 4,3 4,3 Z m 0,5 v 2 L 12,8 V 6 Z m 0,5 c -0.4102748,0.52547 -0.5254703,1.589725 0,2 2.1665695,1.691606 8,-2 8,-2 v -2 c 0,0 -6.3083936,-0.16657 -8,2 z"
       fill="#8da5f3"
       id="path2"
       sodipodi:nodetypes="ccssccccccssccs" /></g></svg>
